<?xml version="1.0" standalone="no"?><!DOCTYPE svg PUBLIC "-//W3C//DTD SVG 1.1//EN" "http://www.w3.org/Graphics/SVG/1.1/DTD/svg11.dtd"><svg t="1565500633874" class="icon" viewBox="0 0 1024 1024" version="1.1" xmlns="http://www.w3.org/2000/svg" p-id="4066" xmlns:xlink="http://www.w3.org/1999/xlink" width="200" height="200"><defs><style type="text/css"></style></defs><path d="M631.8 150.58C573.63 131.19 497 120.51 416 120.51s-157.63 10.68-215.81 30.07C109.86 180.69 90.9 222.83 90.9 252.88q0 1.74 0.09 3.54v166.76c0 0.81-0.09 1.62-0.09 2.45 0 1.16 0 2.34 0.09 3.53v166.77c0 0.81-0.09 1.62-0.09 2.44q0 1.75 0.09 3.54v166.77c0 0.81-0.09 1.62-0.09 2.44 0 30 19 72.19 109.29 102.3C258.36 892.81 335 903.49 416 903.49s157.64-10.68 215.81-30.07c90.19-30.08 109.24-72.15 109.28-102.18V252.16c-0.3-30-19.67-71.7-109.29-101.58z m37.29 447.36c-1.57 4.22-16.93 21.44-68.81 37.21-50 15.21-115.49 23.59-184.29 23.59s-134.24-8.38-184.28-23.59c-51.09-15.53-66.75-32.46-68.73-37v-85.08a321.57 321.57 0 0 0 37.2 14.85C258.36 547.31 335 558 416 558s157.64-10.68 215.81-30.07A320.22 320.22 0 0 0 669.09 513z m0-172.74c-1.57 4.21-16.93 21.43-68.81 37.2C550.24 477.62 484.79 486 416 486s-134.24-8.37-184.28-23.59c-51.1-15.54-66.72-32.41-68.72-37v-85.09a321.57 321.57 0 0 0 37.2 14.85c58.16 19.39 134.8 30.07 215.8 30.07s157.64-10.68 215.81-30.07a318.46 318.46 0 0 0 37.29-14.89zM231.71 216.1c50-15.21 115.49-23.59 184.28-23.59s134.25 8.38 184.29 23.59c50.26 15.28 66.25 31.92 68.63 36.78-2.38 4.85-18.37 21.49-68.63 36.78-50 15.21-115.49 23.58-184.29 23.58s-134.24-8.37-184.28-23.58c-50.26-15.29-66.25-31.93-68.63-36.78 2.38-4.88 18.37-21.5 68.63-36.78z m368.57 591.8c-50 15.21-115.49 23.59-184.29 23.59s-134.24-8.38-184.28-23.59c-51.09-15.53-66.75-32.46-68.73-37v-85.08a321.57 321.57 0 0 0 37.2 14.85C258.36 720.06 335 730.74 416 730.74s157.64-10.68 215.81-30.07a320.22 320.22 0 0 0 37.29-14.89v84.91c-1.58 4.22-16.94 21.44-68.82 37.21zM897.11 757.75h-9.32V288.91h9.32a36 36 0 0 0 0-72h-90.64a36 36 0 1 0 0 72h9.32v468.84h-9.32a36 36 0 0 0 0 72h90.64a36 36 0 1 0 0-72z" fill="#9E9E9E" p-id="4067"></path></svg>