<?xml version="1.0" standalone="no"?><!DOCTYPE svg PUBLIC "-//W3C//DTD SVG 1.1//EN" "http://www.w3.org/Graphics/SVG/1.1/DTD/svg11.dtd"><svg t="1565500601371" class="icon" viewBox="0 0 1024 1024" version="1.1" xmlns="http://www.w3.org/2000/svg" p-id="3731" xmlns:xlink="http://www.w3.org/1999/xlink" width="200" height="200"><defs><style type="text/css"></style></defs><path d="M902 845.4l-79.1-79.06A401.68 401.68 0 0 0 228 228a401.68 401.68 0 0 0 538.34 594.9L845.4 902a40 40 0 0 0 56.6-56.6z m-390-11.75a321.65 321.65 0 1 1 227.46-94.21A319.56 319.56 0 0 1 512 833.65z" fill="#9E9E9E" p-id="3732"></path><path d="M648.06 524.52h-78.15l91.18-155.29A36 36 0 0 0 599 332.77l-87 148.17-87-148.17a36 36 0 0 0-62.09 36.46l91.18 155.29h-78.15a36 36 0 0 0 0 72H476v92.14a36 36 0 0 0 72 0v-92.14h100.06a36 36 0 0 0 0-72z" fill="#9E9E9E" p-id="3733"></path></svg>