<?xml version="1.0" standalone="no"?><!DOCTYPE svg PUBLIC "-//W3C//DTD SVG 1.1//EN" "http://www.w3.org/Graphics/SVG/1.1/DTD/svg11.dtd"><svg t="1565500638271" class="icon" viewBox="0 0 1024 1024" version="1.1" xmlns="http://www.w3.org/2000/svg" p-id="4177" xmlns:xlink="http://www.w3.org/1999/xlink" width="200" height="200"><defs><style type="text/css"></style></defs><path d="M860 908H164a48.05 48.05 0 0 1-48-48V164a48.05 48.05 0 0 1 48-48h696a48.05 48.05 0 0 1 48 48v696a48.05 48.05 0 0 1-48 48z m-672-72h648V188H188z" fill="#9C9C9C" p-id="4178"></path><path d="M249 333m36 0l168 0q36 0 36 36l0 0q0 36-36 36l-168 0q-36 0-36-36l0 0q0-36 36-36Z" fill="#9C9C9C" p-id="4179"></path><path d="M578 564m36 0l128 0q36 0 36 36l0 0q0 36-36 36l-128 0q-36 0-36-36l0 0q0-36 36-36Z" fill="#9C9C9C" p-id="4180"></path><path d="M578 674m36 0l128 0q36 0 36 36l0 0q0 36-36 36l-128 0q-36 0-36-36l0 0q0-36 36-36Z" fill="#9C9C9C" p-id="4181"></path><path d="M333 489m0-36l0-168q0-36 36-36l0 0q36 0 36 36l0 168q0 36-36 36l0 0q-36 0-36-36Z" fill="#9C9C9C" p-id="4182"></path><path d="M316.836114 656.249955m25.455844-25.455844l288.499567-288.499567q25.455844-25.455844 50.911688 0l0 0q25.455844 25.455844 0 50.911688l-288.499566 288.499567q-25.455844 25.455844-50.911689 0l0 0q-25.455844-25.455844 0-50.911688Z" fill="#9C9C9C" p-id="4183"></path></svg>