<?xml version="1.0" standalone="no"?><!DOCTYPE svg PUBLIC "-//W3C//DTD SVG 1.1//EN" "http://www.w3.org/Graphics/SVG/1.1/DTD/svg11.dtd"><svg t="1565500649437" class="icon" viewBox="0 0 1024 1024" version="1.1" xmlns="http://www.w3.org/2000/svg" p-id="4404" xmlns:xlink="http://www.w3.org/1999/xlink" width="200" height="200"><defs><style type="text/css"></style></defs><path d="M512 65C265.13 65 65 265.13 65 512s200.13 447 447 447 447-200.13 447-447S758.87 65 512 65z m222.28 612.72a40 40 0 1 1-56.56 56.56L512 568.57 346.28 734.28a40 40 0 0 1-56.56-56.56L455.43 512 289.72 346.28a40 40 0 0 1 56.56-56.56L512 455.43l165.72-165.71a40 40 0 0 1 56.56 56.56L568.57 512z" fill="#F44336" p-id="4405"></path></svg>