<svg xmlns="http://www.w3.org/2000/svg" viewBox="0 0 108 108">
    <defs>
        <style>.cls-1{fill:#e9e9e9;}
        </style>
    </defs>
    <title>looding-01
    </title>
    <g id="图层_2" data-name="图层 2">
    <g id="图层_1-2" data-name="图层 1">
    <path class="cls-1" d="M54,0a54,54,0,1,0,54,54A54,54,0,0,0,54,0ZM47.77,95.91a42.37,42.37,0,0,1,0-83.82V32H39.88A11.63,11.63,0,0,0,28.25,43.62V64.38A11.63,11.63,0,0,0,39.88,76h7.89ZM41.12,64.38a1.23,1.23,0,0,1-1.24-1.24V44.86a1.23,1.23,0,0,1,1.24-1.24H66.88a1.23,1.23,0,0,1,1.24,1.24V63.14a1.23,1.23,0,0,1-1.24,1.24ZM60.23,95.91V76h7.89A11.63,11.63,0,0,0,79.75,64.38V43.62A11.63,11.63,0,0,0,68.12,32H60.23V12.09a42.37,42.37,0,0,1,0,83.82Z"/>
    </g>
    </g>
 </svg>