<?xml version="1.0" standalone="no"?><!DOCTYPE svg PUBLIC "-//W3C//DTD SVG 1.1//EN" "http://www.w3.org/Graphics/SVG/1.1/DTD/svg11.dtd"><svg t="1565500618515" class="icon" viewBox="0 0 1024 1024" version="1.1" xmlns="http://www.w3.org/2000/svg" p-id="3843" xmlns:xlink="http://www.w3.org/1999/xlink" width="200" height="200"><defs><style type="text/css"></style></defs><path d="M875 228.5a36 36 0 0 0-36 36v44.64q-6.37-10.29-13.39-20.21a387.37 387.37 0 0 0-83.81-86 386.06 386.06 0 0 0-462.44 0 386.68 386.68 0 0 0-137.6 195 36 36 0 1 0 68.79 21.26 312.22 312.22 0 0 1 43.73-88.55 315.48 315.48 0 0 1 68.25-70.06 314.07 314.07 0 0 1 376.1 0 315.21 315.21 0 0 1 93.32 112H731a36 36 0 0 0 0 72h144a36 36 0 0 0 36-36v-144a36 36 0 0 0-36-36.08zM853.63 590.41A36 36 0 0 0 808 612.94a314.19 314.19 0 0 1-574.24 47.56H293a36 36 0 0 0 0-72H149a36 36 0 0 0-36 36v144a36 36 0 0 0 72 0v-49q7.11 11.12 15 21.79a387.18 387.18 0 0 0 83.43 82.85 386.09 386.09 0 0 0 454.24 0 386.69 386.69 0 0 0 138.49-188.08 36 36 0 0 0-22.53-45.65z" fill="#9E9E9E" p-id="3844"></path></svg>