<?xml version="1.0" standalone="no"?><!DOCTYPE svg PUBLIC "-//W3C//DTD SVG 1.1//EN" "http://www.w3.org/Graphics/SVG/1.1/DTD/svg11.dtd"><svg t="1565500627226" class="icon" viewBox="0 0 1024 1024" version="1.1" xmlns="http://www.w3.org/2000/svg" p-id="3954" xmlns:xlink="http://www.w3.org/1999/xlink" width="200" height="200"><defs><style type="text/css"></style></defs><path d="M512 341c-94.29 0-171 76.71-171 171s76.71 171 171 171 171-76.71 171-171-76.71-171-171-171z m0 270a99 99 0 1 1 99-99 99.11 99.11 0 0 1-99 99z" fill="#9D9D9D" p-id="3955"></path><path d="M950.45 432.68a36 36 0 0 0-31.33-29.38l-52.09-6a369.44 369.44 0 0 0-22.92-55.3l32.6-41a36 36 0 0 0 1.38-42.94A445.9 445.9 0 0 0 765.93 145.9a36 36 0 0 0-42.93 1.38l-41 32.6A369.6 369.6 0 0 0 626.65 157l-6-52.08a36 36 0 0 0-29.35-31.39 451.88 451.88 0 0 0-158.6 0 36 36 0 0 0-29.39 31.34l-6 52.08A369.6 369.6 0 0 0 342 179.88l-41-32.6a36 36 0 0 0-42.93-1.38 445.9 445.9 0 0 0-112.16 112.15 36 36 0 0 0 1.38 42.95l32.6 41A369.44 369.44 0 0 0 157 397.33l-52.09 6a36 36 0 0 0-31.33 29.38 449.52 449.52 0 0 0 0 158.6 36 36 0 0 0 31.33 29.39l52.09 6a369.55 369.55 0 0 0 22.92 55.31l-32.6 41a36 36 0 0 0-1.38 42.93 445.94 445.94 0 0 0 112.13 112.13 36 36 0 0 0 42.93-1.38l41-32.6A370.66 370.66 0 0 0 397.35 867l6 52.08a36 36 0 0 0 29.39 31.33 449.52 449.52 0 0 0 158.6 0 36 36 0 0 0 29.39-31.33l6-52.08A370.66 370.66 0 0 0 682 844.09l41 32.6a36 36 0 0 0 42.93 1.38 445.94 445.94 0 0 0 112.16-112.16 36 36 0 0 0-1.38-42.91l-32.6-41A369.55 369.55 0 0 0 867 626.63l52.09-6a36 36 0 0 0 31.33-29.39 449.52 449.52 0 0 0 0-158.6z m-67.1 119.62l-48.41 5.54a36 36 0 0 0-30.84 27.08 298.12 298.12 0 0 1-34 82 36 36 0 0 0 2.65 41l30.32 38.16a373 373 0 0 1-57 57l-38.17-30.33a36 36 0 0 0-41-2.66 298.71 298.71 0 0 1-82 34 36 36 0 0 0-27.09 30.84l-5.54 48.4a379.84 379.84 0 0 1-80.62 0l-5.54-48.4a36 36 0 0 0-27.09-30.84 298.71 298.71 0 0 1-82-34 36 36 0 0 0-41 2.66l-38.17 30.32a373 373 0 0 1-57-57l30.32-38.16a36 36 0 0 0 2.65-41 298.12 298.12 0 0 1-34-82 36 36 0 0 0-30.84-27.08l-48.41-5.54a379.05 379.05 0 0 1 0-80.63l48.41-5.54a36 36 0 0 0 30.84-27.08 298.31 298.31 0 0 1 34-82 36 36 0 0 0-2.65-41l-30.32-38.17a373 373 0 0 1 57-57l38.17 30.32a36 36 0 0 0 41 2.65 298.68 298.68 0 0 1 82-34A36 36 0 0 0 466.15 189l5.54-48.4a378.52 378.52 0 0 1 80.62 0l5.54 48.4a36 36 0 0 0 27.09 30.84 298.68 298.68 0 0 1 82 34 36 36 0 0 0 41-2.65l38.17-30.32a373 373 0 0 1 57 57l-30.32 38.17a36 36 0 0 0-2.65 41 298.31 298.31 0 0 1 34 82 36 36 0 0 0 30.84 27.08l48.41 5.54a379.05 379.05 0 0 1 0 80.63z" fill="#9D9D9D" p-id="3956"></path></svg>