<?xml version="1.0" standalone="no"?><!DOCTYPE svg PUBLIC "-//W3C//DTD SVG 1.1//EN" "http://www.w3.org/Graphics/SVG/1.1/DTD/svg11.dtd"><svg t="1565500653965" class="icon" viewBox="0 0 1024 1024" version="1.1" xmlns="http://www.w3.org/2000/svg" p-id="4515" xmlns:xlink="http://www.w3.org/1999/xlink" width="200" height="200"><defs><style type="text/css"></style></defs><path d="M512 65C265.12 65 65 265.12 65 512c0 245.2 201.8 447 447 447 246.87 0 447-200.13 447-447 0-245.2-201.83-447-447-447z m276.28 303.82L444.36 712.75a40 40 0 0 1-56.57 0c-0.29-0.29-0.56-0.59-0.84-0.88L216.27 541.19c-15.86-15.86-16.16-42.12 0-57.67a40 40 0 0 1 56 0.55L409 620.8a10 10 0 0 0 14.14 0l308.58-308.55a40 40 0 1 1 56.56 56.57z" fill="#4CAF50" p-id="4516"></path></svg>